    <svg xmlns="http://www.w3.org/2000/svg" version="1.1" xmlns:xlink="http://www.w3.org/1999/xlink" xmlns:svgjs="http://svgjs.dev/svgjs" width="400" height="400" viewBox="0 0 400 388"><g transform="matrix(1,0,0,1,-0.6060265590468248,-0.051767417681361394)"><svg viewBox="0 0 396 154" data-background-color="#ffffff" preserveAspectRatio="xMidYMid meet" height="388" width="400" xmlns="http://www.w3.org/2000/svg" xmlns:xlink="http://www.w3.org/1999/xlink"><g id="tight-bounds" transform="matrix(1,0,0,1,0.23998658760450553,0.020546861657038562)"><svg viewBox="0 0 395.52 153.95890515323902" height="153.95890515323902" width="395.52"><g><svg viewBox="0 0 395.52 153.95890515323902" height="200.95890515323902" width="395.52"><g transform="matrix(1,0,0,1,0,124.39798184720775)"><svg viewBox="0 0 395.52 29.560923306031274" height="29.560923306031274" width="395.52"><g><svg viewBox="0 0 395.52 29.560923306031274" height="29.560923306031274" width="395.52"><g><svg viewBox="0 0 395.52 29.560923306031274" height="29.560923306031274" width="395.52"><g transform="matrix(1,0,0,1,0,0)"><svg width="395.52" viewBox="1.6500000953674316 -39.79999923706055 537.1499633789062 40.14999771118164" height="29.560923306031274" data-palette-color="#ffffff">
              
            </svg></g></svg></g></svg></g></svg></g><g transform="matrix(1,0,0,1,75.54432,0)"><svg viewBox="0 0 244.43135999999998 106.95142052122115" height="106.95142052122115" width="244.43135999999998"><g><svg viewBox="0 0 244.43135999999998 106.95142052122115" height="106.95142052122115" width="244.43135999999998"><g transform="matrix(1,0,0,1,101.37935037517252,28.26701869124739)"><svg viewBox="0 0 41.67265924965495 50.41738313872637" height="50.41738313872637" width="41.67265924965495"><g><svg xmlns="http://www.w3.org/2000/svg" xmlns:xlink="http://www.w3.org/1999/xlink" version="1.1" x="0" y="0" viewBox="29.28400230407715 24.937000274658203 41.430992126464844 50.125003814697266" enable-background="new 0 0 100 100" xml:space="preserve" height="50.41738313872637" width="41.67265924965495" class="icon-a-0" data-fill-palette-color="accent" id="a-0"><g fill="#ffffff" data-fill-palette-color="accent"><path fill="#ffffff" d="M70.715 51.872c0-5.887-2.475-11.201-6.434-14.973V26.444c0-0.746-0.548-1.378-1.286-1.485-0.294-0.041-1.862-0.177-3.643 1.365-1.41 1.222-2.554 3.134-3.433 5.718-1.876-0.568-3.859-0.885-5.919-0.885-0.62 0-1.23 0.04-1.836 0.097v-0.413-4.397c0-0.829-0.671-1.5-1.5-1.5s-1.5 0.671-1.5 1.5v4.397 0.909V34.6v0.617c0 4.287-2.774 7.774-6.184 7.774-3.41 0-6.185-3.487-6.185-7.774v-8.772c0-0.829-0.671-1.5-1.5-1.5s-1.5 0.671-1.5 1.5v8.772c0 2.555 0.766 4.902 2.037 6.75-1.621 2.94-2.548 6.313-2.548 9.905 0 6.715 3.227 12.677 8.195 16.464v5.226c0 0.829 0.671 1.5 1.5 1.5s1.5-0.671 1.5-1.5V70.25c2.854 1.484 6.086 2.336 9.52 2.336 4.161 0 8.032-1.245 11.281-3.365v4.341c0 0.829 0.671 1.5 1.5 1.5s1.5-0.671 1.5-1.5v-6.723C68.236 63.064 70.715 57.757 70.715 51.872zM32.047 51.872c0-2.776 0.649-5.396 1.785-7.739 1.075 0.857 2.315 1.442 3.649 1.701v18.881C34.134 61.452 32.047 56.904 32.047 51.872zM50 69.825c-3.499 0-6.756-1.021-9.52-2.759V45.833c4.351-0.844 7.684-5.277 7.684-10.617v-1.188c0.604-0.065 1.214-0.109 1.836-0.109 1.797 0 3.529 0.272 5.165 0.771-0.933 3.954-1.402 9.068-1.402 15.313 0 2.978 1.107 8.016 5.259 8.016 0.829 0 1.5-0.671 1.5-1.5s-0.671-1.5-1.5-1.5c-1.861 0-2.255-3.958-2.259-5.016 0-6.54 0.535-11.135 1.272-14.368 0.236-0.963 0.501-1.843 0.72-2.51-0.007-0.003-0.015-0.006-0.022-0.01 0.798-2.388 1.694-3.667 2.389-4.343 0.054-0.053 0.108-0.103 0.16-0.149v5.899 3.403 27.894C58.196 68.319 54.272 69.825 50 69.825zM64.281 41.024c2.299 3.015 3.672 6.771 3.672 10.848 0 4.072-1.378 7.819-3.672 10.834V41.024z" data-fill-palette-color="accent"></path><path fill="#ffffff" d="M36.48 40.462c0.829 0 1.5-0.671 1.5-1.5V26.444c0-0.829-0.671-1.5-1.5-1.5s-1.5 0.671-1.5 1.5v12.518C34.98 39.791 35.652 40.462 36.48 40.462z" data-fill-palette-color="accent"></path><path fill="#ffffff" d="M41.391 40.462c0.829 0 1.5-0.671 1.5-1.5V26.444c0-0.829-0.671-1.5-1.5-1.5s-1.5 0.671-1.5 1.5v12.518C39.891 39.791 40.562 40.462 41.391 40.462z" data-fill-palette-color="accent"></path></g></svg></g></svg></g><path d="M79.918 36.52L77.953 36.549 76.77 39.977 78.298 41.212 77.923 42.298 71.087 36.756 71.498 35.567 80.29 35.444ZM76.04 39.397L77.021 36.555 72.554 36.608ZM73.774 29.982L80.423 33.301 81.721 30.7 82.508 31.093 80.723 34.667 73.288 30.956ZM75.884 26.076L76.442 25.141 83.578 29.4 83.02 30.335ZM82.498 17.447L83.22 16.541 89.674 21.68 89.002 22.524 84.189 18.692 87.291 24.673 86.812 25.275 80.28 23.585 85.101 27.424 84.423 28.276 77.968 23.136 78.696 22.222 85.937 24.08ZM93.573 18.661C92.977 19.152 92.321 19.461 91.604 19.586 90.882 19.716 90.172 19.645 89.474 19.375 88.776 19.114 88.168 18.671 87.65 18.044V18.044C87.133 17.417 86.813 16.736 86.69 16.001 86.561 15.269 86.627 14.559 86.886 13.87 87.146 13.19 87.573 12.604 88.169 12.112V12.112C88.77 11.616 89.431 11.304 90.153 11.174 90.874 11.054 91.581 11.126 92.275 11.391 92.964 11.651 93.57 12.097 94.091 12.729V12.729C94.612 13.361 94.937 14.042 95.066 14.773 95.195 15.505 95.13 16.21 94.871 16.89 94.606 17.575 94.174 18.165 93.573 18.661ZM92.975 17.936C93.422 17.568 93.738 17.13 93.924 16.622 94.114 16.12 94.153 15.592 94.04 15.037 93.924 14.477 93.656 13.943 93.236 13.435V13.435C92.812 12.921 92.339 12.556 91.815 12.341 91.296 12.13 90.772 12.066 90.244 12.148 89.716 12.23 89.223 12.459 88.766 12.836V12.836C88.314 13.209 87.998 13.647 87.818 14.15 87.632 14.658 87.593 15.186 87.701 15.736 87.814 16.29 88.082 16.825 88.506 17.338V17.338C88.925 17.847 89.399 18.211 89.926 18.432 90.45 18.648 90.976 18.71 91.505 18.619 92.038 18.533 92.528 18.305 92.975 17.936ZM98.464 5.542L99.468 4.983 100.767 13.77 99.667 14.382 92.886 8.645 93.899 8.081 99.667 13.068ZM100.073 3.417L101.035 3 101.854 5.236 101.157 5.538ZM108.353 10.601C107.829 10.777 107.332 10.842 106.86 10.797 106.388 10.752 105.98 10.605 105.636 10.355 105.292 10.105 105.045 9.767 104.895 9.339V9.339L105.993 8.97C106.154 9.324 106.409 9.582 106.759 9.746 107.116 9.907 107.549 9.902 108.061 9.73V9.73C108.547 9.566 108.891 9.317 109.095 8.982 109.296 8.64 109.332 8.277 109.203 7.892V7.892C109.101 7.589 108.936 7.37 108.708 7.236 108.474 7.104 108.218 7.032 107.94 7.02 107.66 7.002 107.29 7.007 106.828 7.035V7.035C106.26 7.079 105.798 7.083 105.442 7.048 105.082 7.022 104.742 6.9 104.424 6.684 104.105 6.468 103.863 6.114 103.698 5.621V5.621C103.554 5.192 103.534 4.777 103.638 4.377 103.747 3.968 103.97 3.609 104.308 3.298 104.638 2.984 105.062 2.739 105.579 2.566V2.566C106.318 2.317 106.982 2.298 107.572 2.507 108.171 2.72 108.605 3.123 108.874 3.714V3.714L107.737 4.095C107.598 3.805 107.35 3.59 106.994 3.45 106.639 3.316 106.232 3.326 105.771 3.481V3.481C105.342 3.625 105.029 3.853 104.832 4.166 104.636 4.484 104.606 4.842 104.739 5.24V5.24C104.835 5.524 104.995 5.73 105.221 5.858 105.44 5.988 105.685 6.057 105.954 6.064 106.22 6.081 106.59 6.076 107.066 6.049V6.049C107.633 6.02 108.097 6.022 108.459 6.055 108.821 6.088 109.165 6.211 109.49 6.425 109.815 6.639 110.061 6.996 110.228 7.494V7.494C110.358 7.88 110.379 8.276 110.291 8.685 110.195 9.09 109.985 9.466 109.659 9.814 109.331 10.156 108.896 10.418 108.353 10.601ZM120.622 8.251L119.332 8.401 116.973 5.258 115.673 5.41 116.068 8.783 114.987 8.91 114.021 0.655 116.69 0.343C117.312 0.27 117.85 0.315 118.305 0.476 118.759 0.638 119.114 0.888 119.368 1.227 119.629 1.565 119.786 1.966 119.84 2.429V2.429C119.907 2.997 119.8 3.519 119.521 3.995 119.248 4.469 118.788 4.814 118.143 5.031V5.031ZM115.206 1.412L115.571 4.537 117.159 4.351C117.741 4.283 118.161 4.09 118.418 3.772 118.675 3.446 118.776 3.043 118.719 2.56V2.56C118.662 2.07 118.476 1.71 118.16 1.479 117.838 1.241 117.382 1.157 116.793 1.226V1.226ZM126.375 0.983L122.989 0.919 122.937 3.696 125.963 3.753 125.946 4.651 122.92 4.594 122.866 7.451 126.252 7.514 126.235 8.413 121.761 8.329 121.917 0 126.392 0.084ZM130.011 9.119C129.465 9.033 128.993 8.862 128.595 8.604 128.197 8.346 127.903 8.027 127.713 7.647 127.523 7.267 127.46 6.853 127.523 6.404V6.404L128.668 6.583C128.648 6.971 128.755 7.318 128.991 7.625 129.232 7.932 129.62 8.127 130.153 8.211V8.211C130.659 8.29 131.08 8.228 131.415 8.024 131.751 7.814 131.951 7.508 132.014 7.107V7.107C132.063 6.791 132.018 6.521 131.877 6.297 131.731 6.071 131.537 5.89 131.296 5.751 131.055 5.605 130.724 5.439 130.302 5.252V5.252C129.777 5.028 129.365 4.819 129.066 4.624 128.758 4.434 128.513 4.17 128.33 3.831 128.147 3.493 128.096 3.067 128.176 2.553V2.553C128.246 2.106 128.42 1.729 128.697 1.422 128.982 1.109 129.346 0.893 129.789 0.773 130.227 0.646 130.715 0.625 131.255 0.71V0.71C132.025 0.83 132.623 1.119 133.05 1.577 133.483 2.042 133.682 2.599 133.648 3.247V3.247L132.464 3.062C132.474 2.74 132.353 2.435 132.102 2.146 131.849 1.864 131.483 1.685 131.003 1.61V1.61C130.555 1.54 130.172 1.598 129.853 1.784 129.533 1.977 129.341 2.281 129.276 2.695V2.695C129.23 2.991 129.277 3.248 129.419 3.466 129.553 3.682 129.738 3.856 129.974 3.987 130.202 4.124 130.533 4.29 130.968 4.486V4.486C131.483 4.722 131.894 4.938 132.201 5.134 132.507 5.33 132.755 5.598 132.945 5.938 133.134 6.277 133.188 6.707 133.107 7.227V7.227C133.044 7.628 132.88 7.99 132.614 8.312 132.342 8.627 131.982 8.864 131.532 9.023 131.084 9.175 130.576 9.207 130.011 9.119ZM135.781 1.737L141.157 3.385 140.899 4.226 138.732 3.561 136.553 10.666 135.522 10.35 137.7 3.245 135.523 2.577ZM144.519 14.131L144.712 12.176 141.44 10.613 140.039 11.992 139.003 11.497 145.28 5.329 146.416 5.872 145.547 14.622ZM142.098 9.953L144.811 11.249 145.262 6.804ZM150.863 8.239L151.754 8.847 148.793 13.188C148.377 13.798 148.218 14.355 148.318 14.859 148.413 15.359 148.727 15.79 149.26 16.154V16.154C149.783 16.511 150.294 16.642 150.794 16.548 151.299 16.457 151.76 16.106 152.176 15.496V15.496L155.137 11.155 156.028 11.763 153.073 16.095C152.683 16.667 152.242 17.072 151.75 17.309 151.252 17.542 150.742 17.621 150.221 17.547 149.702 17.468 149.199 17.261 148.709 16.927V16.927C148.225 16.597 147.851 16.205 147.588 15.752 147.329 15.293 147.22 14.791 147.261 14.246 147.302 13.702 147.517 13.144 147.908 12.572V12.572ZM156.387 23.454L155.443 22.562 156.337 18.735 155.386 17.837 153.054 20.306 152.262 19.559 157.968 13.516 159.922 15.361C160.377 15.791 160.689 16.232 160.857 16.684 161.026 17.136 161.061 17.569 160.965 17.981 160.873 18.398 160.667 18.776 160.347 19.115V19.115C159.954 19.532 159.486 19.785 158.942 19.876 158.403 19.972 157.843 19.842 157.263 19.486V19.486ZM158.15 14.91L155.989 17.198 157.151 18.295C157.577 18.698 157.995 18.895 158.405 18.888 158.819 18.876 159.193 18.694 159.527 18.34V18.34C159.865 17.982 160.022 17.608 159.996 17.217 159.971 16.818 159.742 16.414 159.311 16.008V16.008ZM160.361 28.764L161.427 27.113 159.231 24.227 157.356 24.813 156.66 23.899 165.063 21.285 165.825 22.287 161.05 29.671ZM160.119 23.941L161.939 26.334 164.373 22.588ZM171.827 32.2L164.493 36.151 163.981 35.201 167.741 28.217 161.911 31.358 161.395 30.4 168.729 26.449 169.245 27.407 165.494 34.386 171.315 31.25ZM172.568 34.227L174.406 39.542 173.575 39.829 172.834 37.686 165.81 40.114 165.458 39.095 172.482 36.666 171.737 34.514ZM73.74 74.324L75.268 73.088 74.085 69.661 72.119 69.631 71.744 68.545 80.543 68.687 80.954 69.877 74.112 75.4ZM75.016 69.666L75.998 72.508 79.48 69.71ZM82.797 74.224L76.148 77.543 77.446 80.144 76.659 80.536 74.875 76.961 82.311 73.25ZM84.544 77.465L85.102 78.4 77.966 82.66 77.408 81.725ZM90.293 85.055L91.015 85.962 84.561 91.101 83.889 90.257 88.702 86.424 82.178 88.108 81.699 87.507 84.809 81.519 79.988 85.358 79.309 84.506 85.764 79.366 86.492 80.281 83.059 86.921ZM89.311 95.214C88.715 94.722 88.287 94.136 88.028 93.456 87.764 92.772 87.699 92.062 87.831 91.325 87.955 90.59 88.275 89.909 88.792 89.282V89.282C89.309 88.655 89.917 88.212 90.616 87.951 91.31 87.686 92.02 87.615 92.746 87.74 93.463 87.865 94.119 88.174 94.715 88.665V88.665C95.316 89.161 95.748 89.751 96.012 90.436 96.267 91.121 96.33 91.829 96.202 92.56 96.077 93.286 95.754 93.965 95.233 94.597V94.597C94.712 95.229 94.104 95.677 93.411 95.942 92.717 96.207 92.012 96.277 91.295 96.152 90.573 96.022 89.912 95.71 89.311 95.214ZM89.908 94.49C90.355 94.858 90.845 95.086 91.378 95.172 91.908 95.263 92.434 95.201 92.957 94.985 93.485 94.765 93.958 94.4 94.378 93.891V93.891C94.802 93.378 95.07 92.844 95.182 92.289 95.29 91.739 95.254 91.213 95.074 90.71 94.893 90.207 94.574 89.767 94.117 89.39V89.39C93.665 89.017 93.175 88.789 92.647 88.707 92.114 88.621 91.587 88.683 91.068 88.894 90.545 89.11 90.071 89.474 89.648 89.988V89.988C89.228 90.496 88.96 91.03 88.843 91.59 88.731 92.145 88.769 92.673 88.959 93.176 89.145 93.683 89.461 94.121 89.908 94.49ZM103.366 94.355L104.37 94.914 97.589 100.651 96.489 100.04 97.789 91.252 98.801 91.816 97.606 99.346ZM105.037 93.861L105.999 94.279 104.923 96.404 104.227 96.102ZM106.22 104.456C105.696 104.28 105.26 104.032 104.911 103.711 104.562 103.39 104.326 103.026 104.203 102.619 104.08 102.213 104.087 101.794 104.225 101.362V101.362L105.324 101.731C105.238 102.11 105.286 102.47 105.466 102.812 105.653 103.156 106.002 103.413 106.513 103.585V103.585C106.999 103.749 107.424 103.758 107.789 103.614 108.156 103.463 108.404 103.195 108.533 102.81V102.81C108.635 102.507 108.636 102.233 108.535 101.989 108.429 101.742 108.268 101.53 108.054 101.353 107.841 101.169 107.543 100.949 107.158 100.693V100.693C106.679 100.385 106.308 100.109 106.045 99.866 105.774 99.628 105.577 99.326 105.453 98.962 105.33 98.597 105.351 98.168 105.517 97.676V97.676C105.661 97.247 105.895 96.904 106.22 96.648 106.554 96.388 106.949 96.236 107.406 96.193 107.859 96.141 108.344 96.203 108.862 96.376V96.376C109.6 96.625 110.141 97.01 110.486 97.533 110.834 98.065 110.937 98.647 110.794 99.281V99.281L109.658 98.899C109.722 98.583 109.654 98.262 109.455 97.935 109.253 97.615 108.922 97.377 108.462 97.222V97.222C108.032 97.078 107.645 97.071 107.299 97.2 106.951 97.336 106.711 97.603 106.577 98.001V98.001C106.482 98.285 106.485 98.546 106.588 98.784 106.684 99.02 106.837 99.223 107.048 99.392 107.249 99.565 107.548 99.785 107.943 100.051V100.051C108.412 100.37 108.781 100.652 109.05 100.897 109.319 101.142 109.518 101.448 109.648 101.814 109.777 102.181 109.758 102.614 109.591 103.113V103.113C109.461 103.498 109.238 103.827 108.922 104.1 108.601 104.364 108.206 104.537 107.736 104.618 107.268 104.693 106.763 104.639 106.22 104.456ZM119.862 106.951L118.573 106.801 117.003 103.198 115.703 103.046 115.309 106.419 114.227 106.292 115.193 98.038 117.862 98.35C118.483 98.423 118.997 98.59 119.402 98.852 119.807 99.114 120.094 99.439 120.263 99.828 120.439 100.217 120.5 100.643 120.446 101.106V101.106C120.379 101.675 120.155 102.158 119.773 102.556 119.398 102.955 118.872 103.185 118.194 103.246V103.246ZM116.171 99.047L115.805 102.173 117.393 102.358C117.975 102.426 118.428 102.335 118.752 102.085 119.077 101.828 119.268 101.458 119.324 100.975V100.975C119.382 100.486 119.284 100.092 119.03 99.794 118.771 99.489 118.347 99.302 117.758 99.233V99.233ZM126.218 99.402L122.832 99.465 122.885 102.242 125.911 102.185 125.928 103.084 122.902 103.14 122.955 105.997 126.341 105.933 126.358 106.832 121.884 106.916 121.727 98.587 126.201 98.503ZM131.045 106.207C130.499 106.292 129.997 106.273 129.54 106.149 129.082 106.025 128.705 105.811 128.408 105.507 128.111 105.203 127.925 104.828 127.848 104.382V104.382L128.993 104.203C129.092 104.578 129.3 104.876 129.618 105.096 129.942 105.315 130.37 105.382 130.903 105.299V105.299C131.41 105.22 131.792 105.032 132.049 104.736 132.305 104.433 132.401 104.081 132.338 103.68V103.68C132.289 103.364 132.163 103.12 131.961 102.95 131.753 102.78 131.513 102.666 131.241 102.608 130.968 102.542 130.601 102.485 130.142 102.436V102.436C129.574 102.383 129.118 102.309 128.773 102.215 128.423 102.128 128.108 101.952 127.831 101.685 127.553 101.418 127.374 101.028 127.294 100.515V100.515C127.224 100.068 127.274 99.656 127.444 99.279 127.62 98.894 127.901 98.577 128.287 98.328 128.665 98.073 129.123 97.904 129.663 97.819V97.819C130.433 97.699 131.091 97.792 131.637 98.097 132.192 98.408 132.551 98.878 132.717 99.505V99.505L131.533 99.691C131.444 99.381 131.236 99.127 130.908 98.929 130.582 98.737 130.178 98.679 129.698 98.754V98.754C129.251 98.824 128.903 98.996 128.656 99.271 128.411 99.552 128.32 99.9 128.385 100.314V100.314C128.431 100.61 128.555 100.84 128.756 101.005 128.95 101.17 129.179 101.279 129.444 101.332 129.703 101.392 130.069 101.45 130.542 101.504V101.504C131.105 101.571 131.563 101.651 131.914 101.744 132.266 101.837 132.584 102.017 132.868 102.282 133.152 102.548 133.335 102.941 133.416 103.46V103.46C133.479 103.862 133.433 104.257 133.278 104.645 133.115 105.027 132.844 105.363 132.465 105.651 132.084 105.933 131.611 106.119 131.045 106.207ZM132.824 97.331L138.201 95.683 138.459 96.523 136.291 97.188 138.469 104.293 137.438 104.609 135.259 97.504 133.082 98.172ZM147.336 100.477L145.936 99.098 142.664 100.66 142.856 102.616 141.82 103.111 140.969 94.352 142.104 93.81 148.364 99.986ZM142.565 99.734L145.278 98.438 142.104 95.293ZM145.18 92.139L146.071 91.531 149.032 95.872C149.448 96.482 149.909 96.833 150.414 96.924 150.914 97.018 151.431 96.883 151.964 96.519V96.519C152.487 96.163 152.795 95.735 152.89 95.235 152.99 94.732 152.831 94.175 152.415 93.564V93.564L149.454 89.224 150.345 88.616 153.3 92.948C153.691 93.52 153.906 94.078 153.947 94.623 153.983 95.171 153.871 95.674 153.611 96.133 153.348 96.587 152.972 96.98 152.483 97.314V97.314C151.998 97.645 151.497 97.849 150.979 97.929 150.457 98.003 149.95 97.921 149.458 97.685 148.966 97.448 148.525 97.044 148.135 96.471V96.471ZM160.875 90.008L159.931 90.9 156.161 89.788 155.21 90.687 157.542 93.156 156.75 93.903 151.044 87.861 152.998 86.016C153.453 85.587 153.911 85.301 154.372 85.158 154.833 85.016 155.267 85.005 155.673 85.125 156.084 85.24 156.45 85.468 156.77 85.806V85.806C157.163 86.223 157.39 86.705 157.449 87.253 157.514 87.797 157.352 88.348 156.964 88.907V88.907ZM152.446 87.76L154.607 90.048 155.769 88.95C156.195 88.548 156.416 88.142 156.432 87.733 156.444 87.319 156.283 86.935 155.949 86.581V86.581C155.611 86.223 155.246 86.045 154.855 86.048 154.455 86.051 154.039 86.256 153.608 86.663V86.663ZM165.564 83.903L163.688 83.316 161.492 86.202 162.558 87.854 161.863 88.768 157.1 81.368 157.862 80.366 166.253 82.996ZM160.98 85.424L162.801 83.031 158.54 81.685ZM162.914 71.708L170.248 75.659 169.736 76.609 161.835 77.311 167.666 80.452 167.149 81.41 159.815 77.459 160.332 76.501 168.223 75.794 162.402 72.658ZM163.037 71.188L164.875 65.873 165.705 66.16 164.964 68.303 171.988 70.731 171.636 71.751 164.612 69.323 163.868 71.475ZM69.447 54.355C69.447 52.352 71.071 50.729 73.073 50.729 75.076 50.729 76.699 52.352 76.699 54.355 76.699 56.358 75.076 57.981 73.073 57.981 71.071 57.981 69.447 56.358 69.447 54.355ZM167.732 54.355C167.732 52.352 169.355 50.729 171.358 50.729 173.361 50.729 174.984 52.352 174.984 54.355 174.984 56.358 173.361 57.981 171.358 57.981 169.355 57.981 167.732 56.358 167.732 54.355Z" fill="#ffffff" data-fill-palette-color="accent"></path></svg></g></svg></g><g></g></svg></g><defs></defs></svg><rect width="395.52" height="153.95890515323902" fill="none" stroke="none" visibility="hidden"></rect></g></svg></g></svg>